<svg width="236" height="45" viewBox="0 0 236 45" fill="none" xmlns="http://www.w3.org/2000/svg">
<path d="M16.0781 10.5977C16.0781 11.8555 15.9062 13.0039 15.5625 14.043C15.2266 15.0742 14.7188 15.957 14.0391 16.6914C13.3672 17.4258 12.5234 17.9961 11.5078 18.4023C10.4922 18.8008 9.30469 19 7.94531 19H1.75781V2.19531H7.94531C9.30469 2.19531 10.4922 2.39844 11.5078 2.80469C12.5234 3.20312 13.3672 3.76953 14.0391 4.50391C14.7188 5.23828 15.2266 6.125 15.5625 7.16406C15.9062 8.19531 16.0781 9.33984 16.0781 10.5977ZM12.5508 10.2695C12.5508 9.55859 12.4609 8.89844 12.2812 8.28906C12.1094 7.67188 11.8281 7.13672 11.4375 6.68359C11.0547 6.23047 10.5547 5.875 9.9375 5.61719C9.32031 5.35156 8.57422 5.21875 7.69922 5.21875H5.15625V15.9766H7.69922C8.56641 15.9766 9.30859 15.8477 9.92578 15.5898C10.543 15.3242 11.043 14.9648 11.4258 14.5117C11.8164 14.0508 12.1016 13.5117 12.2812 12.8945C12.4609 12.2773 12.5508 11.6172 12.5508 10.9141V10.2695ZM23.9766 6.20312C24.9062 6.20312 25.75 6.37109 26.5078 6.70703C27.2656 7.03516 27.9141 7.49219 28.4531 8.07812C28.9922 8.66406 29.4062 9.35547 29.6953 10.1523C29.9922 10.9492 30.1406 11.8086 30.1406 12.7305C30.1406 13.6602 29.9922 14.5234 29.6953 15.3203C29.3984 16.1094 28.9805 16.793 28.4414 17.3711C27.9023 17.9492 27.2539 18.4062 26.4961 18.7422C25.7383 19.0703 24.8984 19.2344 23.9766 19.2344C23.0469 19.2344 22.2031 19.0703 21.4453 18.7422C20.6875 18.4062 20.0391 17.9492 19.5 17.3711C18.9609 16.793 18.543 16.1094 18.2461 15.3203C17.9492 14.5234 17.8008 13.6602 17.8008 12.7305C17.8008 11.8086 17.9453 10.9492 18.2344 10.1523C18.5312 9.35547 18.9492 8.66406 19.4883 8.07812C20.0273 7.49219 20.6758 7.03516 21.4336 6.70703C22.1992 6.37109 23.0469 6.20312 23.9766 6.20312ZM23.9766 16.2344C24.4375 16.2344 24.8438 16.1484 25.1953 15.9766C25.5547 15.8047 25.8555 15.5664 26.0977 15.2617C26.3398 14.957 26.5234 14.5938 26.6484 14.1719C26.7734 13.7422 26.8359 13.2734 26.8359 12.7656V12.6836C26.8359 12.1758 26.7734 11.7109 26.6484 11.2891C26.5234 10.8594 26.3398 10.4922 26.0977 10.1875C25.8555 9.875 25.5547 9.63281 25.1953 9.46094C24.8438 9.28906 24.4375 9.20312 23.9766 9.20312C23.5156 9.20312 23.1055 9.28906 22.7461 9.46094C22.3945 9.63281 22.0977 9.875 21.8555 10.1875C21.6133 10.4922 21.4297 10.8594 21.3047 11.2891C21.1797 11.7109 21.1172 12.1758 21.1172 12.6836V12.7656C21.1172 13.2734 21.1797 13.7422 21.3047 14.1719C21.4297 14.5938 21.6133 14.957 21.8555 15.2617C22.0977 15.5664 22.3945 15.8047 22.7461 15.9766C23.1055 16.1484 23.5156 16.2344 23.9766 16.2344ZM42.8672 19H39.6211V11.6992C39.6211 11.2539 39.5703 10.8789 39.4688 10.5742C39.375 10.2617 39.2422 10.0117 39.0703 9.82422C38.8984 9.62891 38.6992 9.49219 38.4727 9.41406C38.2461 9.32812 38 9.28516 37.7344 9.28516C37.4219 9.28516 37.1289 9.33984 36.8555 9.44922C36.5898 9.55859 36.3555 9.73047 36.1523 9.96484C35.957 10.1992 35.8008 10.5 35.6836 10.8672C35.5742 11.2266 35.5195 11.6562 35.5195 12.1562V19H32.2852V6.44922H35.5195V7.55078C35.9336 7.08984 36.4141 6.75 36.9609 6.53125C37.5156 6.3125 38.1094 6.20312 38.7422 6.20312C39.3906 6.20312 39.9961 6.33594 40.5586 6.60156C41.1289 6.86719 41.6016 7.30469 41.9766 7.91406C42.1953 7.60156 42.4453 7.33594 42.7266 7.11719C43.0156 6.89844 43.3242 6.72266 43.6523 6.58984C43.9805 6.45703 44.3203 6.35937 44.6719 6.29688C45.0312 6.23438 45.3984 6.20312 45.7734 6.20312C46.4766 6.20312 47.1016 6.32031 47.6484 6.55469C48.2031 6.78125 48.6719 7.08984 49.0547 7.48047C49.4375 7.87109 49.7305 8.32031 49.9336 8.82812C50.1367 9.33594 50.2383 9.87109 50.2383 10.4336V19H46.9688V11.6992C46.9688 11.2539 46.918 10.8789 46.8164 10.5742C46.7227 10.2617 46.5898 10.0117 46.418 9.82422C46.2461 9.62891 46.043 9.49219 45.8086 9.41406C45.582 9.32812 45.3359 9.28516 45.0703 9.28516C44.7578 9.28516 44.4688 9.33984 44.2031 9.44922C43.9375 9.55859 43.7031 9.73047 43.5 9.96484C43.3047 10.1992 43.1484 10.5 43.0312 10.8672C42.9219 11.2266 42.8672 11.6562 42.8672 12.1562V19ZM55.6406 13.8438C55.6953 14.2188 55.8125 14.5625 55.9922 14.875C56.1797 15.1875 56.4141 15.457 56.6953 15.6836C56.9766 15.9023 57.3008 16.0742 57.668 16.1992C58.0352 16.3242 58.4258 16.3867 58.8398 16.3867C59.3164 16.3867 59.832 16.2969 60.3867 16.1172C60.9414 15.9297 61.4492 15.6602 61.9102 15.3086L63.4688 17.582C62.8828 18.0742 62.1641 18.4727 61.3125 18.7773C60.4609 19.082 59.5547 19.2344 58.5938 19.2344C57.7266 19.2344 56.9102 19.0859 56.1445 18.7891C55.3789 18.4922 54.707 18.0625 54.1289 17.5C53.5586 16.9375 53.1055 16.2539 52.7695 15.4492C52.4414 14.6445 52.2773 13.7383 52.2773 12.7305C52.2773 11.8086 52.4219 10.9492 52.7109 10.1523C53.0078 9.35547 53.418 8.66406 53.9414 8.07812C54.4727 7.49219 55.1055 7.03516 55.8398 6.70703C56.5742 6.37109 57.3867 6.20312 58.2773 6.20312C59.1055 6.20312 59.875 6.35547 60.5859 6.66016C61.2969 6.95703 61.9141 7.37891 62.4375 7.92578C62.9609 8.46484 63.3711 9.11328 63.668 9.87109C63.9648 10.6289 64.1133 11.4648 64.1133 12.3789V13.8438H55.6406ZM58.2656 9.01562C57.5703 9.01562 56.9805 9.25 56.4961 9.71875C56.0195 10.1797 55.7422 10.7383 55.6641 11.3945H60.7266C60.7109 10.7305 60.4688 10.168 60 9.70703C59.5312 9.24609 58.9531 9.01562 58.2656 9.01562ZM67.0664 14.9922C67.5273 15.4062 68.0781 15.7617 68.7188 16.0586C69.3594 16.3555 70.0078 16.5039 70.6641 16.5039C71.1406 16.5039 71.5156 16.4141 71.7891 16.2344C72.0625 16.0469 72.1992 15.8086 72.1992 15.5195C72.1992 15.0273 71.6719 14.6445 70.6172 14.3711L69.7031 14.125C69.25 14.0156 68.793 13.8672 68.332 13.6797C67.8711 13.4844 67.4453 13.2305 67.0547 12.918C66.6719 12.6055 66.3594 12.2266 66.1172 11.7812C65.8828 11.3281 65.7656 10.7734 65.7656 10.1172C65.7656 9.59375 65.8789 9.09766 66.1055 8.62891C66.3398 8.15234 66.668 7.73438 67.0898 7.375C67.5195 7.01562 68.0391 6.73047 68.6484 6.51953C69.2578 6.30859 69.9375 6.20312 70.6875 6.20312C71.7578 6.20312 72.7109 6.37109 73.5469 6.70703C74.3906 7.04297 75.0547 7.42188 75.5391 7.84375L73.8516 10C73.4531 9.71094 72.9805 9.46484 72.4336 9.26172C71.8945 9.05078 71.3516 8.94531 70.8047 8.94531C70.2969 8.94531 69.9023 9.03906 69.6211 9.22656C69.3398 9.40625 69.1992 9.625 69.1992 9.88281C69.1992 10.1562 69.3203 10.3789 69.5625 10.5508C69.8125 10.7148 70.1719 10.8594 70.6406 10.9844L72 11.3711C73.2969 11.7383 74.2266 12.2344 74.7891 12.8594C75.3516 13.4844 75.6328 14.2734 75.6328 15.2266C75.6328 15.7578 75.5234 16.2656 75.3047 16.75C75.0859 17.2266 74.7656 17.6523 74.3438 18.0273C73.9219 18.4023 73.3984 18.6992 72.7734 18.918C72.1484 19.1289 71.4375 19.2344 70.6406 19.2344C70.0312 19.2344 69.457 19.1797 68.918 19.0703C68.3867 18.9609 67.8906 18.8125 67.4297 18.625C66.9766 18.4297 66.5664 18.2109 66.1992 17.9688C65.832 17.7266 65.5195 17.4844 65.2617 17.2422L67.0664 14.9922ZM82.3594 15.2617C82.3594 15.4102 82.3789 15.5508 82.418 15.6836C82.457 15.8164 82.5234 15.9336 82.6172 16.0352C82.7188 16.1289 82.8594 16.2031 83.0391 16.2578C83.2188 16.3125 83.4492 16.3398 83.7305 16.3398C83.8477 16.3398 83.9805 16.3359 84.1289 16.3281C84.2773 16.3125 84.4258 16.2969 84.5742 16.2812C84.7227 16.2656 84.8594 16.2461 84.9844 16.2227C85.1172 16.1992 85.2266 16.1797 85.3125 16.1641L85.6055 19.0234C85.3008 19.0625 84.9844 19.0977 84.6562 19.1289C84.375 19.1602 84.0625 19.1836 83.7188 19.1992C83.375 19.2227 83.0273 19.2344 82.6758 19.2344C81.5586 19.2344 80.6875 18.9805 80.0625 18.4727C79.4375 17.9648 79.125 17.1562 79.125 16.0469V9.26172H76.8633V6.44922H79.125V2.89844L82.3594 2.03125V6.44922H85.6523V9.26172H82.3594V15.2617ZM90.9258 19H87.6914V6.44922H90.9258V19ZM87.3516 3.15625C87.3516 2.89062 87.4023 2.64062 87.5039 2.40625C87.6055 2.16406 87.7422 1.95703 87.9141 1.78516C88.0938 1.60547 88.3008 1.46484 88.5352 1.36328C88.7695 1.26172 89.0234 1.21094 89.2969 1.21094C89.5625 1.21094 89.8125 1.26172 90.0469 1.36328C90.2891 1.46484 90.4961 1.60547 90.668 1.78516C90.8477 1.95703 90.9883 2.16406 91.0898 2.40625C91.1914 2.64062 91.2422 2.89062 91.2422 3.15625C91.2422 3.42969 91.1914 3.68359 91.0898 3.91797C90.9883 4.15234 90.8477 4.35938 90.668 4.53906C90.4961 4.71094 90.2891 4.84766 90.0469 4.94922C89.8125 5.05078 89.5625 5.10156 89.2969 5.10156C89.0234 5.10156 88.7695 5.05078 88.5352 4.94922C88.3008 4.84766 88.0938 4.71094 87.9141 4.53906C87.7422 4.35938 87.6055 4.15234 87.5039 3.91797C87.4023 3.68359 87.3516 3.42969 87.3516 3.15625ZM96.3984 12.7891C96.3984 13.1953 96.4531 13.6055 96.5625 14.0195C96.6719 14.4258 96.8398 14.793 97.0664 15.1211C97.293 15.4492 97.582 15.7188 97.9336 15.9297C98.293 16.1328 98.7188 16.2344 99.2109 16.2344C99.5312 16.2344 99.8203 16.1914 100.078 16.1055C100.344 16.0195 100.578 15.9023 100.781 15.7539C100.992 15.5977 101.176 15.418 101.332 15.2148C101.496 15.0039 101.637 14.7773 101.754 14.5352L104.59 16C104.387 16.4922 104.105 16.9375 103.746 17.3359C103.395 17.7344 102.984 18.0742 102.516 18.3555C102.047 18.6367 101.527 18.8516 100.957 19C100.387 19.1562 99.7812 19.2344 99.1406 19.2344C98.2578 19.2344 97.4453 19.0703 96.7031 18.7422C95.9609 18.4062 95.3203 17.9492 94.7812 17.3711C94.2422 16.793 93.8203 16.1094 93.5156 15.3203C93.2109 14.5234 93.0586 13.6602 93.0586 12.7305C93.0586 11.8086 93.2109 10.9492 93.5156 10.1523C93.8203 9.35547 94.2422 8.66406 94.7812 8.07812C95.3203 7.49219 95.9609 7.03516 96.7031 6.70703C97.4453 6.37109 98.2578 6.20312 99.1406 6.20312C99.7812 6.20312 100.387 6.28125 100.957 6.4375C101.527 6.58594 102.047 6.80469 102.516 7.09375C102.984 7.375 103.395 7.71484 103.746 8.11328C104.105 8.51172 104.387 8.95703 104.59 9.44922L101.754 10.9141C101.637 10.6719 101.496 10.4492 101.332 10.2461C101.176 10.0352 100.992 9.85547 100.781 9.70703C100.578 9.55078 100.344 9.42969 100.078 9.34375C99.8203 9.25 99.5312 9.20312 99.2109 9.20312C98.7188 9.20312 98.293 9.30859 97.9336 9.51953C97.582 9.72266 97.293 9.99219 97.0664 10.3281C96.8398 10.6562 96.6719 11.0273 96.5625 11.4414C96.4531 11.8555 96.3984 12.2695 96.3984 12.6836V12.7891ZM119.93 15.8828H113.707L112.758 19H109.148L114.645 2.19531H119.109L124.688 19H120.891L119.93 15.8828ZM114.621 12.8828H119.016L116.836 5.78125H116.789L114.621 12.8828ZM138.223 12.7305C138.223 13.6602 138.086 14.5234 137.812 15.3203C137.539 16.1172 137.156 16.8047 136.664 17.3828C136.172 17.9609 135.582 18.4141 134.895 18.7422C134.207 19.0703 133.449 19.2344 132.621 19.2344C132.254 19.2344 131.918 19.1992 131.613 19.1289C131.316 19.0664 131.043 18.9766 130.793 18.8594C130.543 18.7422 130.312 18.6055 130.102 18.4492C129.891 18.2852 129.699 18.1094 129.527 17.9219V19H126.293V2.19531H129.527V7.52734C129.879 7.16016 130.312 6.84766 130.828 6.58984C131.344 6.33203 131.969 6.20312 132.703 6.20312C133.531 6.20312 134.281 6.37109 134.953 6.70703C135.633 7.03516 136.215 7.49219 136.699 8.07812C137.184 8.65625 137.559 9.34375 137.824 10.1406C138.09 10.9375 138.223 11.8008 138.223 12.7305ZM129.434 13.8906C129.434 14.2266 129.492 14.5391 129.609 14.8281C129.734 15.1094 129.91 15.3555 130.137 15.5664C130.363 15.7773 130.633 15.9414 130.945 16.0586C131.266 16.1758 131.625 16.2344 132.023 16.2344C132.484 16.2344 132.891 16.1523 133.242 15.9883C133.602 15.8164 133.902 15.5781 134.145 15.2734C134.387 14.9688 134.57 14.6094 134.695 14.1953C134.82 13.7734 134.883 13.3125 134.883 12.8125V12.6602C134.883 12.1602 134.82 11.6992 134.695 11.2773C134.57 10.8555 134.387 10.4922 134.145 10.1875C133.902 9.875 133.602 9.63281 133.242 9.46094C132.891 9.28906 132.484 9.20312 132.023 9.20312C131.625 9.20312 131.266 9.26172 130.945 9.37891C130.633 9.49609 130.363 9.66016 130.137 9.87109C129.91 10.082 129.734 10.332 129.609 10.6211C129.492 10.9102 129.434 11.2227 129.434 11.5586V13.8906ZM151.055 19H147.82V17.9219C147.641 18.0938 147.445 18.2617 147.234 18.4258C147.023 18.582 146.789 18.7227 146.531 18.8477C146.273 18.9648 145.984 19.0586 145.664 19.1289C145.352 19.1992 145.004 19.2344 144.621 19.2344C143.941 19.2344 143.332 19.125 142.793 18.9062C142.254 18.6797 141.797 18.375 141.422 17.9922C141.055 17.6016 140.773 17.1445 140.578 16.6211C140.383 16.0977 140.285 15.5312 140.285 14.9219V6.44922H143.52V13.7383C143.52 14.1836 143.566 14.5625 143.66 14.875C143.762 15.1875 143.898 15.4414 144.07 15.6367C144.25 15.8242 144.461 15.9648 144.703 16.0586C144.945 16.1445 145.207 16.1875 145.488 16.1875C145.816 16.1875 146.121 16.1289 146.402 16.0117C146.691 15.8945 146.941 15.7188 147.152 15.4844C147.363 15.2422 147.527 14.9414 147.645 14.582C147.762 14.2227 147.82 13.8008 147.82 13.3164V6.44922H151.055V19ZM154.746 14.9922C155.207 15.4062 155.758 15.7617 156.398 16.0586C157.039 16.3555 157.688 16.5039 158.344 16.5039C158.82 16.5039 159.195 16.4141 159.469 16.2344C159.742 16.0469 159.879 15.8086 159.879 15.5195C159.879 15.0273 159.352 14.6445 158.297 14.3711L157.383 14.125C156.93 14.0156 156.473 13.8672 156.012 13.6797C155.551 13.4844 155.125 13.2305 154.734 12.918C154.352 12.6055 154.039 12.2266 153.797 11.7812C153.562 11.3281 153.445 10.7734 153.445 10.1172C153.445 9.59375 153.559 9.09766 153.785 8.62891C154.02 8.15234 154.348 7.73438 154.77 7.375C155.199 7.01562 155.719 6.73047 156.328 6.51953C156.938 6.30859 157.617 6.20312 158.367 6.20312C159.438 6.20312 160.391 6.37109 161.227 6.70703C162.07 7.04297 162.734 7.42188 163.219 7.84375L161.531 10C161.133 9.71094 160.66 9.46484 160.113 9.26172C159.574 9.05078 159.031 8.94531 158.484 8.94531C157.977 8.94531 157.582 9.03906 157.301 9.22656C157.02 9.40625 156.879 9.625 156.879 9.88281C156.879 10.1562 157 10.3789 157.242 10.5508C157.492 10.7148 157.852 10.8594 158.32 10.9844L159.68 11.3711C160.977 11.7383 161.906 12.2344 162.469 12.8594C163.031 13.4844 163.312 14.2734 163.312 15.2266C163.312 15.7578 163.203 16.2656 162.984 16.75C162.766 17.2266 162.445 17.6523 162.023 18.0273C161.602 18.4023 161.078 18.6992 160.453 18.918C159.828 19.1289 159.117 19.2344 158.32 19.2344C157.711 19.2344 157.137 19.1797 156.598 19.0703C156.066 18.9609 155.57 18.8125 155.109 18.625C154.656 18.4297 154.246 18.2109 153.879 17.9688C153.512 17.7266 153.199 17.4844 152.941 17.2422L154.746 14.9922ZM168.117 13.8438C168.172 14.2188 168.289 14.5625 168.469 14.875C168.656 15.1875 168.891 15.457 169.172 15.6836C169.453 15.9023 169.777 16.0742 170.145 16.1992C170.512 16.3242 170.902 16.3867 171.316 16.3867C171.793 16.3867 172.309 16.2969 172.863 16.1172C173.418 15.9297 173.926 15.6602 174.387 15.3086L175.945 17.582C175.359 18.0742 174.641 18.4727 173.789 18.7773C172.938 19.082 172.031 19.2344 171.07 19.2344C170.203 19.2344 169.387 19.0859 168.621 18.7891C167.855 18.4922 167.184 18.0625 166.605 17.5C166.035 16.9375 165.582 16.2539 165.246 15.4492C164.918 14.6445 164.754 13.7383 164.754 12.7305C164.754 11.8086 164.898 10.9492 165.188 10.1523C165.484 9.35547 165.895 8.66406 166.418 8.07812C166.949 7.49219 167.582 7.03516 168.316 6.70703C169.051 6.37109 169.863 6.20312 170.754 6.20312C171.582 6.20312 172.352 6.35547 173.062 6.66016C173.773 6.95703 174.391 7.37891 174.914 7.92578C175.438 8.46484 175.848 9.11328 176.145 9.87109C176.441 10.6289 176.59 11.4648 176.59 12.3789V13.8438H168.117ZM170.742 9.01562C170.047 9.01562 169.457 9.25 168.973 9.71875C168.496 10.1797 168.219 10.7383 168.141 11.3945H173.203C173.188 10.7305 172.945 10.168 172.477 9.70703C172.008 9.24609 171.43 9.01562 170.742 9.01562Z" fill="#505A5F"/>
<path d="M1.34668 30.2089H7.21191V31.2479H2.5498V34.4677H6.8291V35.5067H2.5498V40.0116H1.34668V30.2089ZM10.0352 40.0116H8.88672V33.0253H10.0352V40.0116ZM8.6748 31.0087C8.6748 30.8993 8.69531 30.7968 8.73633 30.701C8.7819 30.6053 8.83887 30.521 8.90723 30.4481C8.98014 30.3752 9.06445 30.3182 9.16016 30.2772C9.26042 30.2316 9.36523 30.2089 9.47461 30.2089C9.58398 30.2089 9.68652 30.2316 9.78223 30.2772C9.87793 30.3182 9.95996 30.3752 10.0283 30.4481C10.1012 30.521 10.1582 30.6053 10.1992 30.701C10.2448 30.7968 10.2676 30.8993 10.2676 31.0087C10.2676 31.118 10.2448 31.2229 10.1992 31.3231C10.1582 31.4188 10.1012 31.5031 10.0283 31.576C9.95996 31.6444 9.87793 31.7014 9.78223 31.7469C9.68652 31.788 9.58398 31.8085 9.47461 31.8085C9.36523 31.8085 9.26042 31.788 9.16016 31.7469C9.06445 31.7014 8.98014 31.6444 8.90723 31.576C8.83887 31.5031 8.7819 31.4188 8.73633 31.3231C8.69531 31.2229 8.6748 31.118 8.6748 31.0087ZM12.1406 33.0253H13.2891V33.8251C13.526 33.5015 13.8177 33.2645 14.1641 33.1141C14.515 32.9637 14.9046 32.8885 15.333 32.8885C15.7204 32.8885 16.0599 32.9524 16.3516 33.08C16.6432 33.2076 16.887 33.3807 17.083 33.5995C17.279 33.8182 17.4248 34.0712 17.5205 34.3583C17.6208 34.6454 17.6709 34.9484 17.6709 35.2675V40.0116H16.5225V35.6298C16.5225 35.3244 16.4837 35.0647 16.4062 34.8505C16.3333 34.6317 16.2308 34.4563 16.0986 34.3241C15.971 34.1874 15.8184 34.0894 15.6406 34.0302C15.4674 33.9663 15.2806 33.9344 15.0801 33.9344C14.8613 33.9344 14.6449 33.9755 14.4307 34.0575C14.221 34.135 14.0296 34.2535 13.8564 34.413C13.6878 34.5725 13.5511 34.773 13.4463 35.0145C13.3415 35.2561 13.2891 35.5409 13.2891 35.869V40.0116H12.1406V33.0253ZM24.3154 39.2118C24.1104 39.4989 23.8301 39.7268 23.4746 39.8954C23.1237 40.064 22.7227 40.1483 22.2715 40.1483C21.8203 40.1483 21.4124 40.0594 21.0479 39.8817C20.6833 39.6994 20.3711 39.4488 20.1113 39.1298C19.8516 38.8062 19.651 38.4234 19.5098 37.9813C19.373 37.5393 19.3047 37.0539 19.3047 36.5253C19.3047 35.9966 19.373 35.5113 19.5098 35.0692C19.651 34.6226 19.8516 34.2375 20.1113 33.9139C20.3711 33.5904 20.6833 33.3397 21.0479 33.162C21.4124 32.9797 21.8203 32.8885 22.2715 32.8885C22.7227 32.8885 23.1237 32.9729 23.4746 33.1415C23.8301 33.3101 24.1104 33.538 24.3154 33.8251V30.2089H25.4639V40.0116H24.3154V39.2118ZM20.4941 36.5526C20.4941 36.9172 20.5374 37.2567 20.624 37.5712C20.7106 37.8856 20.8382 38.1591 21.0068 38.3915C21.1755 38.6193 21.3828 38.7994 21.6289 38.9315C21.875 39.0637 22.1598 39.1298 22.4834 39.1298C22.7887 39.1298 23.0553 39.0774 23.2832 38.9725C23.5156 38.8677 23.7093 38.7242 23.8643 38.5419C24.0192 38.3596 24.1354 38.1454 24.2129 37.8993C24.2904 37.6486 24.3291 37.3775 24.3291 37.0858V35.951C24.3291 35.6594 24.2904 35.3905 24.2129 35.1444C24.1354 34.8938 24.0192 34.6773 23.8643 34.495C23.7093 34.3127 23.5156 34.1691 23.2832 34.0643C23.0553 33.9595 22.7887 33.9071 22.4834 33.9071C22.1598 33.9071 21.875 33.9732 21.6289 34.1053C21.3828 34.2375 21.1755 34.4198 21.0068 34.6522C20.8382 34.8801 20.7106 35.1512 20.624 35.4657C20.5374 35.7802 20.4941 36.1197 20.4941 36.4843V36.5526ZM30.6455 37.7421C31.0739 38.2206 31.5342 38.5669 32.0264 38.7811C32.5231 38.9953 33.0426 39.1024 33.585 39.1024C33.9587 39.1024 34.2913 39.0568 34.583 38.9657C34.8792 38.87 35.1276 38.7401 35.3281 38.576C35.5286 38.412 35.679 38.2251 35.7793 38.0155C35.8841 37.8059 35.9365 37.5848 35.9365 37.3524C35.9365 37.0243 35.8682 36.76 35.7314 36.5594C35.5947 36.3589 35.4147 36.1971 35.1914 36.0741C34.9681 35.9465 34.7083 35.8485 34.4121 35.7802C34.1204 35.7072 33.8151 35.6389 33.4961 35.5751L33.3594 35.5477C33.1452 35.5067 32.9219 35.4634 32.6895 35.4178C32.4616 35.3723 32.236 35.313 32.0127 35.2401C31.7894 35.1626 31.5729 35.0715 31.3633 34.9667C31.1536 34.8573 30.9691 34.7229 30.8096 34.5634C30.5954 34.3674 30.4176 34.1281 30.2764 33.8456C30.1396 33.5585 30.0713 33.2053 30.0713 32.786C30.0713 32.4898 30.1351 32.1822 30.2627 31.8632C30.3949 31.5441 30.6022 31.2525 30.8848 30.9882C31.1719 30.7238 31.5365 30.5074 31.9785 30.3387C32.4206 30.1701 32.9561 30.0858 33.585 30.0858C34.2822 30.0858 34.9248 30.2111 35.5127 30.4618C35.7542 30.5666 35.9844 30.6919 36.2031 30.8378C36.4264 30.979 36.6452 31.1568 36.8594 31.371L35.9502 32.1161C35.613 31.7788 35.2279 31.5328 34.7949 31.3778C34.362 31.2183 33.9199 31.1385 33.4688 31.1385C33.1452 31.1385 32.849 31.1773 32.5801 31.2548C32.3158 31.3322 32.0879 31.4439 31.8965 31.5897C31.7051 31.7356 31.557 31.9042 31.4521 32.0956C31.3519 32.287 31.3018 32.4943 31.3018 32.7177C31.3018 33.0275 31.3678 33.2782 31.5 33.4696C31.6367 33.661 31.8145 33.816 32.0332 33.9344C32.252 34.0484 32.498 34.1372 32.7715 34.201C33.0495 34.2649 33.3298 34.3264 33.6123 34.3856L33.6807 34.3993C34.1364 34.4904 34.5762 34.5975 35 34.7206C35.4284 34.8391 35.7998 35.0054 36.1143 35.2196C36.4333 35.4292 36.6885 35.6958 36.8799 36.0194C37.0713 36.3384 37.167 36.7509 37.167 37.2567C37.167 37.6167 37.0918 37.9722 36.9414 38.3231C36.791 38.674 36.5654 38.9862 36.2646 39.2596C35.9684 39.5285 35.5947 39.745 35.1436 39.9091C34.6924 40.0686 34.1615 40.1483 33.5508 40.1483C33.0768 40.1483 32.6393 40.0982 32.2383 39.9979C31.8372 39.8931 31.4681 39.7587 31.1309 39.5946C30.8802 39.4624 30.6364 39.3098 30.3994 39.1366C30.167 38.9634 29.9346 38.7561 29.7021 38.5145L30.6455 37.7421ZM44.1738 40.0116H43.0254V39.2118C42.7884 39.5354 42.4945 39.7723 42.1436 39.9227C41.7972 40.0731 41.4098 40.1483 40.9814 40.1483C40.5941 40.1483 40.2546 40.0845 39.9629 39.9569C39.6712 39.8293 39.4274 39.6561 39.2314 39.4374C39.0355 39.2186 38.8874 38.9657 38.7871 38.6786C38.6914 38.3915 38.6436 38.0884 38.6436 37.7694V33.0253H39.792V37.4071C39.792 37.717 39.8285 37.979 39.9014 38.1932C39.9788 38.4074 40.0814 38.5829 40.209 38.7196C40.3411 38.8518 40.4938 38.9497 40.667 39.0135C40.8447 39.0728 41.0339 39.1024 41.2344 39.1024C41.4714 39.1024 41.6969 39.0637 41.9111 38.9862C42.1299 38.9042 42.3213 38.7834 42.4854 38.6239C42.6494 38.4644 42.7793 38.2639 42.875 38.0223C42.9753 37.7808 43.0254 37.496 43.0254 37.1678V33.0253H44.1738V40.0116ZM47.4277 33.0253V33.8251C47.6328 33.538 47.9108 33.3101 48.2617 33.1415C48.6126 32.9729 49.016 32.8885 49.4717 32.8885C49.9229 32.8885 50.3307 32.9797 50.6953 33.162C51.0599 33.3397 51.3721 33.5904 51.6318 33.9139C51.8916 34.2375 52.0898 34.6226 52.2266 35.0692C52.3678 35.5113 52.4385 35.9966 52.4385 36.5253C52.4385 37.0539 52.3678 37.5393 52.2266 37.9813C52.0898 38.4234 51.8916 38.8062 51.6318 39.1298C51.3721 39.4488 51.0599 39.6994 50.6953 39.8817C50.3307 40.0594 49.9229 40.1483 49.4717 40.1483C49.016 40.1483 48.6126 40.064 48.2617 39.8954C47.9108 39.7268 47.6328 39.4989 47.4277 39.2118V42.1376H46.2793V33.0253H47.4277ZM51.249 36.4843C51.249 36.1197 51.2057 35.7802 51.1191 35.4657C51.0326 35.1512 50.9049 34.8801 50.7363 34.6522C50.5677 34.4198 50.3581 34.2375 50.1074 34.1053C49.8613 33.9732 49.5788 33.9071 49.2598 33.9071C48.9544 33.9071 48.6855 33.9595 48.4531 34.0643C48.2253 34.1691 48.0339 34.3127 47.8789 34.495C47.724 34.6773 47.6055 34.8938 47.5234 35.1444C47.446 35.3905 47.4072 35.6594 47.4072 35.951V37.0858C47.4072 37.3775 47.446 37.6486 47.5234 37.8993C47.6055 38.1454 47.724 38.3596 47.8789 38.5419C48.0339 38.7242 48.2253 38.8677 48.4531 38.9725C48.6855 39.0774 48.9544 39.1298 49.2598 39.1298C49.5788 39.1298 49.8613 39.0637 50.1074 38.9315C50.3581 38.7994 50.5677 38.6193 50.7363 38.3915C50.9049 38.1591 51.0326 37.8856 51.1191 37.5712C51.2057 37.2567 51.249 36.9172 51.249 36.5526V36.4843ZM55.2891 33.0253V33.8251C55.4941 33.538 55.7721 33.3101 56.123 33.1415C56.474 32.9729 56.8773 32.8885 57.333 32.8885C57.7842 32.8885 58.1921 32.9797 58.5566 33.162C58.9212 33.3397 59.2334 33.5904 59.4932 33.9139C59.7529 34.2375 59.9512 34.6226 60.0879 35.0692C60.2292 35.5113 60.2998 35.9966 60.2998 36.5253C60.2998 37.0539 60.2292 37.5393 60.0879 37.9813C59.9512 38.4234 59.7529 38.8062 59.4932 39.1298C59.2334 39.4488 58.9212 39.6994 58.5566 39.8817C58.1921 40.0594 57.7842 40.1483 57.333 40.1483C56.8773 40.1483 56.474 40.064 56.123 39.8954C55.7721 39.7268 55.4941 39.4989 55.2891 39.2118V42.1376H54.1406V33.0253H55.2891ZM59.1104 36.4843C59.1104 36.1197 59.0671 35.7802 58.9805 35.4657C58.8939 35.1512 58.7663 34.8801 58.5977 34.6522C58.429 34.4198 58.2194 34.2375 57.9688 34.1053C57.7227 33.9732 57.4401 33.9071 57.1211 33.9071C56.8158 33.9071 56.5469 33.9595 56.3145 34.0643C56.0866 34.1691 55.8952 34.3127 55.7402 34.495C55.5853 34.6773 55.4668 34.8938 55.3848 35.1444C55.3073 35.3905 55.2686 35.6594 55.2686 35.951V37.0858C55.2686 37.3775 55.3073 37.6486 55.3848 37.8993C55.4668 38.1454 55.5853 38.3596 55.7402 38.5419C55.8952 38.7242 56.0866 38.8677 56.3145 38.9725C56.5469 39.0774 56.8158 39.1298 57.1211 39.1298C57.4401 39.1298 57.7227 39.0637 57.9688 38.9315C58.2194 38.7994 58.429 38.6193 58.5977 38.3915C58.7663 38.1591 58.8939 37.8856 58.9805 37.5712C59.0671 37.2567 59.1104 36.9172 59.1104 36.5526V36.4843ZM64.7979 32.8885C65.2809 32.8885 65.7207 32.9797 66.1172 33.162C66.5137 33.3397 66.8509 33.5904 67.1289 33.9139C67.4115 34.233 67.6302 34.6158 67.7852 35.0624C67.9401 35.5044 68.0176 35.9921 68.0176 36.5253C68.0176 37.0494 67.9401 37.5347 67.7852 37.9813C67.6302 38.4234 67.4115 38.8062 67.1289 39.1298C66.8509 39.4488 66.5137 39.6994 66.1172 39.8817C65.7207 40.0594 65.2809 40.1483 64.7979 40.1483C64.3148 40.1483 63.875 40.0594 63.4785 39.8817C63.0866 39.6994 62.7493 39.4488 62.4668 39.1298C62.1842 38.8062 61.9655 38.4234 61.8105 37.9813C61.6556 37.5347 61.5781 37.0494 61.5781 36.5253C61.5781 35.9921 61.6556 35.5044 61.8105 35.0624C61.9655 34.6158 62.1842 34.233 62.4668 33.9139C62.7493 33.5904 63.0866 33.3397 63.4785 33.162C63.875 32.9797 64.3148 32.8885 64.7979 32.8885ZM64.7979 39.1434C65.1305 39.1434 65.4222 39.0751 65.6729 38.9384C65.9281 38.7971 66.14 38.608 66.3086 38.371C66.4818 38.134 66.6117 37.8606 66.6982 37.5507C66.7848 37.2362 66.8281 36.9081 66.8281 36.5663V36.4843C66.8281 36.1333 66.7848 35.8007 66.6982 35.4862C66.6117 35.1718 66.4818 34.8983 66.3086 34.6659C66.14 34.4289 65.9281 34.2421 65.6729 34.1053C65.4222 33.9641 65.1305 33.8934 64.7979 33.8934C64.4652 33.8934 64.1712 33.9641 63.916 34.1053C63.6654 34.2421 63.4535 34.4289 63.2803 34.6659C63.1117 34.8983 62.984 35.1718 62.8975 35.4862C62.8109 35.8007 62.7676 36.1333 62.7676 36.4843V36.5663C62.7676 36.9081 62.8109 37.2362 62.8975 37.5507C62.984 37.8606 63.1117 38.134 63.2803 38.371C63.4535 38.608 63.6654 38.7971 63.916 38.9384C64.1712 39.0751 64.4652 39.1434 64.7979 39.1434ZM73.2676 34.0507H73.083C72.7868 34.0507 72.5042 34.0848 72.2354 34.1532C71.9665 34.2216 71.7295 34.3446 71.5244 34.5223C71.3193 34.7001 71.1553 34.9439 71.0322 35.2538C70.9092 35.5591 70.8477 35.951 70.8477 36.4296V40.0116H69.6992V33.0253H70.8477V34.1327C70.9342 33.9276 71.0505 33.7476 71.1963 33.5927C71.3421 33.4377 71.5062 33.3101 71.6885 33.2098C71.8753 33.105 72.0736 33.0275 72.2832 32.9774C72.4974 32.9273 72.7139 32.9022 72.9326 32.9022H73.2676V34.0507ZM76.4258 38.2753C76.4258 38.3938 76.4326 38.5054 76.4463 38.6102C76.4645 38.7105 76.5033 38.7994 76.5625 38.8768C76.6263 38.9543 76.7174 39.0158 76.8359 39.0614C76.9544 39.107 77.1162 39.1298 77.3213 39.1298C77.376 39.1298 77.4398 39.1275 77.5127 39.1229C77.5902 39.1184 77.6699 39.1138 77.752 39.1093C77.834 39.1001 77.9137 39.091 77.9912 39.0819C78.0687 39.0682 78.1348 39.0568 78.1895 39.0477L78.3125 40.0526C78.1803 40.0708 78.0436 40.0868 77.9023 40.1005C77.7839 40.1141 77.6517 40.1255 77.5059 40.1346C77.36 40.1438 77.2142 40.1483 77.0684 40.1483C76.7904 40.1483 76.5397 40.1187 76.3164 40.0594C76.0977 40.0048 75.9108 39.9136 75.7559 39.786C75.6009 39.6584 75.4824 39.4921 75.4004 39.287C75.3184 39.0774 75.2773 38.8244 75.2773 38.5282V34.037H73.958V33.0253H75.2773V30.7421L76.4258 30.3387V33.0253H78.3672V34.037H76.4258V38.2753ZM82.8584 37.7421C83.2868 38.2206 83.7471 38.5669 84.2393 38.7811C84.736 38.9953 85.2555 39.1024 85.7979 39.1024C86.1715 39.1024 86.5042 39.0568 86.7959 38.9657C87.0921 38.87 87.3405 38.7401 87.541 38.576C87.7415 38.412 87.8919 38.2251 87.9922 38.0155C88.097 37.8059 88.1494 37.5848 88.1494 37.3524C88.1494 37.0243 88.0811 36.76 87.9443 36.5594C87.8076 36.3589 87.6276 36.1971 87.4043 36.0741C87.181 35.9465 86.9212 35.8485 86.625 35.7802C86.3333 35.7072 86.028 35.6389 85.709 35.5751L85.5723 35.5477C85.3581 35.5067 85.1348 35.4634 84.9023 35.4178C84.6745 35.3723 84.4489 35.313 84.2256 35.2401C84.0023 35.1626 83.7858 35.0715 83.5762 34.9667C83.3665 34.8573 83.182 34.7229 83.0225 34.5634C82.8083 34.3674 82.6305 34.1281 82.4893 33.8456C82.3525 33.5585 82.2842 33.2053 82.2842 32.786C82.2842 32.4898 82.348 32.1822 82.4756 31.8632C82.6077 31.5441 82.8151 31.2525 83.0977 30.9882C83.3848 30.7238 83.7493 30.5074 84.1914 30.3387C84.6335 30.1701 85.1689 30.0858 85.7979 30.0858C86.4951 30.0858 87.1377 30.2111 87.7256 30.4618C87.9671 30.5666 88.1973 30.6919 88.416 30.8378C88.6393 30.979 88.8581 31.1568 89.0723 31.371L88.1631 32.1161C87.8258 31.7788 87.4408 31.5328 87.0078 31.3778C86.5749 31.2183 86.1328 31.1385 85.6816 31.1385C85.3581 31.1385 85.0618 31.1773 84.793 31.2548C84.5286 31.3322 84.3008 31.4439 84.1094 31.5897C83.918 31.7356 83.7699 31.9042 83.665 32.0956C83.5648 32.287 83.5146 32.4943 83.5146 32.7177C83.5146 33.0275 83.5807 33.2782 83.7129 33.4696C83.8496 33.661 84.0273 33.816 84.2461 33.9344C84.4648 34.0484 84.7109 34.1372 84.9844 34.201C85.2624 34.2649 85.5426 34.3264 85.8252 34.3856L85.8936 34.3993C86.3493 34.4904 86.7891 34.5975 87.2129 34.7206C87.6413 34.8391 88.0127 35.0054 88.3271 35.2196C88.6462 35.4292 88.9014 35.6958 89.0928 36.0194C89.2842 36.3384 89.3799 36.7509 89.3799 37.2567C89.3799 37.6167 89.3047 37.9722 89.1543 38.3231C89.0039 38.674 88.7783 38.9862 88.4775 39.2596C88.1813 39.5285 87.8076 39.745 87.3564 39.9091C86.9053 40.0686 86.3743 40.1483 85.7637 40.1483C85.2897 40.1483 84.8522 40.0982 84.4512 39.9979C84.0501 39.8931 83.681 39.7587 83.3438 39.5946C83.0931 39.4624 82.8493 39.3098 82.6123 39.1366C82.3799 38.9634 82.1475 38.7561 81.915 38.5145L82.8584 37.7421ZM91.793 36.8739C91.8158 37.202 91.8818 37.5051 91.9912 37.7831C92.1006 38.0611 92.2487 38.3026 92.4355 38.5077C92.627 38.7082 92.8503 38.8654 93.1055 38.9794C93.3652 39.0887 93.6523 39.1434 93.9668 39.1434C94.3542 39.1434 94.6937 39.0796 94.9854 38.952C95.2816 38.8199 95.5527 38.6558 95.7988 38.4598L96.3867 39.287C96.0723 39.5376 95.7077 39.745 95.293 39.9091C94.8828 40.0686 94.4225 40.1483 93.9121 40.1483C93.4062 40.1483 92.9482 40.0594 92.5381 39.8817C92.1279 39.6994 91.777 39.4488 91.4854 39.1298C91.1982 38.8062 90.9772 38.4234 90.8223 37.9813C90.6673 37.5347 90.5898 37.0494 90.5898 36.5253C90.5898 35.9921 90.665 35.5044 90.8154 35.0624C90.9704 34.6158 91.1868 34.233 91.4648 33.9139C91.7428 33.5904 92.0755 33.3397 92.4629 33.162C92.8503 32.9797 93.2809 32.8885 93.7549 32.8885C94.2152 32.8885 94.6299 32.9797 94.999 33.162C95.3682 33.3397 95.6826 33.5904 95.9424 33.9139C96.2021 34.233 96.4004 34.6158 96.5371 35.0624C96.6784 35.5044 96.749 35.9875 96.749 36.5116V36.8739H91.793ZM93.7139 33.8934C93.4222 33.8934 93.1624 33.9504 92.9346 34.0643C92.7067 34.1783 92.5107 34.3309 92.3467 34.5223C92.1872 34.7137 92.0596 34.9348 91.9639 35.1854C91.8727 35.4315 91.8203 35.6867 91.8066 35.951H95.5049C95.4958 35.6822 95.4479 35.4247 95.3613 35.1786C95.2793 34.9279 95.1608 34.7092 95.0059 34.5223C94.8555 34.3309 94.6709 34.1783 94.4521 34.0643C94.238 33.9504 93.9919 33.8934 93.7139 33.8934ZM101.924 34.0507H101.739C101.443 34.0507 101.16 34.0848 100.892 34.1532C100.623 34.2216 100.386 34.3446 100.181 34.5223C99.9756 34.7001 99.8115 34.9439 99.6885 35.2538C99.5654 35.5591 99.5039 35.951 99.5039 36.4296V40.0116H98.3555V33.0253H99.5039V34.1327C99.5905 33.9276 99.7067 33.7476 99.8525 33.5927C99.9984 33.4377 100.162 33.3101 100.345 33.2098C100.532 33.105 100.73 33.0275 100.939 32.9774C101.154 32.9273 101.37 32.9022 101.589 32.9022H101.924V34.0507ZM104.774 40.0116L102.56 33.0253H103.865L105.54 38.9452L107.208 33.0253H108.514L106.299 40.0116H104.774ZM111.057 40.0116H109.908V33.0253H111.057V40.0116ZM109.696 31.0087C109.696 30.8993 109.717 30.7968 109.758 30.701C109.803 30.6053 109.86 30.521 109.929 30.4481C110.002 30.3752 110.086 30.3182 110.182 30.2772C110.282 30.2316 110.387 30.2089 110.496 30.2089C110.605 30.2089 110.708 30.2316 110.804 30.2772C110.899 30.3182 110.981 30.3752 111.05 30.4481C111.123 30.521 111.18 30.6053 111.221 30.701C111.266 30.7968 111.289 30.8993 111.289 31.0087C111.289 31.118 111.266 31.2229 111.221 31.3231C111.18 31.4188 111.123 31.5031 111.05 31.576C110.981 31.6444 110.899 31.7014 110.804 31.7469C110.708 31.788 110.605 31.8085 110.496 31.8085C110.387 31.8085 110.282 31.788 110.182 31.7469C110.086 31.7014 110.002 31.6444 109.929 31.576C109.86 31.5031 109.803 31.4188 109.758 31.3231C109.717 31.2229 109.696 31.118 109.696 31.0087ZM113.928 36.5526C113.928 36.9035 113.971 37.2362 114.058 37.5507C114.144 37.8651 114.272 38.1408 114.44 38.3778C114.609 38.6102 114.819 38.7971 115.069 38.9384C115.325 39.0751 115.621 39.1434 115.958 39.1434C116.177 39.1434 116.377 39.1138 116.56 39.0546C116.746 38.9908 116.913 38.9065 117.059 38.8016C117.209 38.6968 117.341 38.5738 117.455 38.4325C117.574 38.2867 117.676 38.1317 117.763 37.9677L118.72 38.5145C118.601 38.7606 118.449 38.9862 118.262 39.1913C118.079 39.3918 117.87 39.5627 117.633 39.704C117.396 39.8453 117.136 39.9546 116.854 40.0321C116.571 40.1096 116.272 40.1483 115.958 40.1483C115.475 40.1483 115.035 40.0594 114.639 39.8817C114.247 39.6994 113.91 39.4488 113.627 39.1298C113.344 38.8062 113.126 38.4234 112.971 37.9813C112.816 37.5393 112.738 37.0539 112.738 36.5253C112.738 35.9921 112.816 35.5044 112.971 35.0624C113.126 34.6158 113.344 34.233 113.627 33.9139C113.91 33.5904 114.247 33.3397 114.639 33.162C115.035 32.9797 115.475 32.8885 115.958 32.8885C116.272 32.8885 116.571 32.9273 116.854 33.0048C117.136 33.0822 117.396 33.1916 117.633 33.3329C117.87 33.4742 118.079 33.6473 118.262 33.8524C118.449 34.0529 118.601 34.2762 118.72 34.5223L117.763 35.0692C117.676 34.9052 117.574 34.7525 117.455 34.6112C117.341 34.4654 117.209 34.34 117.059 34.2352C116.913 34.1304 116.746 34.0484 116.56 33.9891C116.377 33.9253 116.177 33.8934 115.958 33.8934C115.621 33.8934 115.325 33.9641 115.069 34.1053C114.819 34.2421 114.609 34.4289 114.44 34.6659C114.272 34.8983 114.144 35.1718 114.058 35.4862C113.971 35.8007 113.928 36.1333 113.928 36.4843V36.5526ZM121.037 36.8739C121.06 37.202 121.126 37.5051 121.235 37.7831C121.345 38.0611 121.493 38.3026 121.68 38.5077C121.871 38.7082 122.094 38.8654 122.35 38.9794C122.609 39.0887 122.896 39.1434 123.211 39.1434C123.598 39.1434 123.938 39.0796 124.229 38.952C124.526 38.8199 124.797 38.6558 125.043 38.4598L125.631 39.287C125.316 39.5376 124.952 39.745 124.537 39.9091C124.127 40.0686 123.667 40.1483 123.156 40.1483C122.65 40.1483 122.192 40.0594 121.782 39.8817C121.372 39.6994 121.021 39.4488 120.729 39.1298C120.442 38.8062 120.221 38.4234 120.066 37.9813C119.911 37.5347 119.834 37.0494 119.834 36.5253C119.834 35.9921 119.909 35.5044 120.06 35.0624C120.215 34.6158 120.431 34.233 120.709 33.9139C120.987 33.5904 121.32 33.3397 121.707 33.162C122.094 32.9797 122.525 32.8885 122.999 32.8885C123.459 32.8885 123.874 32.9797 124.243 33.162C124.612 33.3397 124.927 33.5904 125.187 33.9139C125.446 34.233 125.645 34.6158 125.781 35.0624C125.923 35.5044 125.993 35.9875 125.993 36.5116V36.8739H121.037ZM122.958 33.8934C122.666 33.8934 122.407 33.9504 122.179 34.0643C121.951 34.1783 121.755 34.3309 121.591 34.5223C121.431 34.7137 121.304 34.9348 121.208 35.1854C121.117 35.4315 121.064 35.6867 121.051 35.951H124.749C124.74 35.6822 124.692 35.4247 124.605 35.1786C124.523 34.9279 124.405 34.7092 124.25 34.5223C124.1 34.3309 123.915 34.1783 123.696 34.0643C123.482 33.9504 123.236 33.8934 122.958 33.8934ZM132.275 38.077C132.275 38.4052 132.202 38.6991 132.057 38.9589C131.915 39.2141 131.726 39.4305 131.489 39.6083C131.252 39.786 130.979 39.9205 130.669 40.0116C130.364 40.1027 130.049 40.1483 129.726 40.1483C129.215 40.1483 128.723 40.0617 128.249 39.8885C127.78 39.7108 127.363 39.4579 126.998 39.1298L127.627 38.3163C127.736 38.412 127.862 38.5122 128.003 38.6171C128.149 38.7219 128.311 38.8199 128.488 38.911C128.666 38.9976 128.857 39.0705 129.062 39.1298C129.268 39.1844 129.484 39.2118 129.712 39.2118C129.899 39.2118 130.076 39.189 130.245 39.1434C130.418 39.0933 130.569 39.0227 130.696 38.9315C130.824 38.8358 130.924 38.7242 130.997 38.5966C131.075 38.4644 131.113 38.3163 131.113 38.1522C131.113 37.9699 131.072 37.8173 130.99 37.6942C130.913 37.5712 130.806 37.4663 130.669 37.3798C130.532 37.2932 130.373 37.218 130.19 37.1542C130.008 37.0904 129.817 37.0266 129.616 36.9628L129.179 36.8192C128.933 36.7372 128.696 36.6438 128.468 36.5389C128.24 36.4341 128.037 36.3065 127.859 36.1561C127.686 36.0012 127.547 35.8189 127.442 35.6093C127.342 35.3996 127.292 35.149 127.292 34.8573C127.292 34.6203 127.342 34.3856 127.442 34.1532C127.543 33.9162 127.695 33.7043 127.9 33.5175C128.11 33.3306 128.374 33.1802 128.693 33.0663C129.012 32.9478 129.388 32.8885 129.821 32.8885C130.3 32.8885 130.742 32.9683 131.147 33.1278C131.558 33.2873 131.904 33.4856 132.187 33.7225L131.585 34.5497C131.485 34.454 131.366 34.3628 131.229 34.2762C131.093 34.1897 130.947 34.1145 130.792 34.0507C130.637 33.9823 130.475 33.9276 130.307 33.8866C130.138 33.8456 129.972 33.8251 129.808 33.8251C129.557 33.8251 129.345 33.8547 129.172 33.9139C128.999 33.9686 128.86 34.0415 128.755 34.1327C128.65 34.2238 128.573 34.3264 128.522 34.4403C128.477 34.5542 128.454 34.6659 128.454 34.7753C128.454 34.9348 128.488 35.0692 128.557 35.1786C128.625 35.2834 128.714 35.3746 128.823 35.452C128.937 35.5295 129.065 35.5956 129.206 35.6503C129.352 35.705 129.502 35.7596 129.657 35.8143L130.231 36.0057C130.505 36.0969 130.756 36.1949 130.983 36.2997C131.211 36.3999 131.412 36.5162 131.585 36.6483C131.804 36.8215 131.972 37.022 132.091 37.2499C132.214 37.4777 132.275 37.7535 132.275 38.077ZM137.99 40.0116H136.842V33.0253H137.99V40.0116ZM136.63 31.0087C136.63 30.8993 136.65 30.7968 136.691 30.701C136.737 30.6053 136.794 30.521 136.862 30.4481C136.935 30.3752 137.02 30.3182 137.115 30.2772C137.215 30.2316 137.32 30.2089 137.43 30.2089C137.539 30.2089 137.642 30.2316 137.737 30.2772C137.833 30.3182 137.915 30.3752 137.983 30.4481C138.056 30.521 138.113 30.6053 138.154 30.701C138.2 30.7968 138.223 30.8993 138.223 31.0087C138.223 31.118 138.2 31.2229 138.154 31.3231C138.113 31.4188 138.056 31.5031 137.983 31.576C137.915 31.6444 137.833 31.7014 137.737 31.7469C137.642 31.788 137.539 31.8085 137.43 31.8085C137.32 31.8085 137.215 31.788 137.115 31.7469C137.02 31.7014 136.935 31.6444 136.862 31.576C136.794 31.5031 136.737 31.4188 136.691 31.3231C136.65 31.2229 136.63 31.118 136.63 31.0087ZM140.096 33.0253H141.244V33.8251C141.481 33.5015 141.773 33.2645 142.119 33.1141C142.47 32.9637 142.86 32.8885 143.288 32.8885C143.675 32.8885 144.015 32.9524 144.307 33.08C144.598 33.2076 144.842 33.3807 145.038 33.5995C145.234 33.8182 145.38 34.0712 145.476 34.3583C145.576 34.6454 145.626 34.9484 145.626 35.2675V40.0116H144.478V35.6298C144.478 35.3244 144.439 35.0647 144.361 34.8505C144.288 34.6317 144.186 34.4563 144.054 34.3241C143.926 34.1874 143.773 34.0894 143.596 34.0302C143.423 33.9663 143.236 33.9344 143.035 33.9344C142.816 33.9344 142.6 33.9755 142.386 34.0575C142.176 34.135 141.985 34.2535 141.812 34.413C141.643 34.5725 141.506 34.773 141.401 35.0145C141.297 35.2561 141.244 35.5409 141.244 35.869V40.0116H140.096V33.0253ZM155.306 37.66H151.457L150.773 40.0116H149.495L152.537 30.2089H154.273L157.336 40.0116H156.01L155.306 37.66ZM151.751 36.6346H155.012L153.433 31.2889H153.323L151.751 36.6346ZM159.975 40.0116H158.826V30.2089H159.975V33.8251C160.18 33.538 160.458 33.3101 160.809 33.1415C161.16 32.9729 161.563 32.8885 162.019 32.8885C162.47 32.8885 162.878 32.9797 163.242 33.162C163.607 33.3397 163.919 33.5904 164.179 33.9139C164.438 34.2375 164.637 34.6226 164.773 35.0692C164.915 35.5113 164.985 35.9966 164.985 36.5253C164.985 37.0539 164.915 37.5393 164.773 37.9813C164.637 38.4234 164.438 38.8062 164.179 39.1298C163.919 39.4488 163.607 39.6994 163.242 39.8817C162.878 40.0594 162.47 40.1483 162.019 40.1483C161.563 40.1483 161.16 40.064 160.809 39.8954C160.458 39.7268 160.18 39.4989 159.975 39.2118V40.0116ZM163.796 36.4843C163.796 36.1197 163.753 35.7802 163.666 35.4657C163.579 35.1512 163.452 34.8801 163.283 34.6522C163.115 34.4198 162.905 34.2375 162.654 34.1053C162.408 33.9732 162.126 33.9071 161.807 33.9071C161.501 33.9071 161.232 33.9595 161 34.0643C160.772 34.1691 160.581 34.3127 160.426 34.495C160.271 34.6773 160.152 34.8938 160.07 35.1444C159.993 35.3905 159.954 35.6594 159.954 35.951V37.0858C159.954 37.3775 159.993 37.6486 160.07 37.8993C160.152 38.1454 160.271 38.3596 160.426 38.5419C160.581 38.7242 160.772 38.8677 161 38.9725C161.232 39.0774 161.501 39.1298 161.807 39.1298C162.126 39.1298 162.408 39.0637 162.654 38.9315C162.905 38.7994 163.115 38.6193 163.283 38.3915C163.452 38.1591 163.579 37.8856 163.666 37.5712C163.753 37.2567 163.796 36.9172 163.796 36.5526V36.4843ZM167.467 36.8739C167.49 37.202 167.556 37.5051 167.665 37.7831C167.774 38.0611 167.923 38.3026 168.109 38.5077C168.301 38.7082 168.524 38.8654 168.779 38.9794C169.039 39.0887 169.326 39.1434 169.641 39.1434C170.028 39.1434 170.368 39.0796 170.659 38.952C170.955 38.8199 171.227 38.6558 171.473 38.4598L172.061 39.287C171.746 39.5376 171.382 39.745 170.967 39.9091C170.557 40.0686 170.096 40.1483 169.586 40.1483C169.08 40.1483 168.622 40.0594 168.212 39.8817C167.802 39.6994 167.451 39.4488 167.159 39.1298C166.872 38.8062 166.651 38.4234 166.496 37.9813C166.341 37.5347 166.264 37.0494 166.264 36.5253C166.264 35.9921 166.339 35.5044 166.489 35.0624C166.644 34.6158 166.861 34.233 167.139 33.9139C167.417 33.5904 167.749 33.3397 168.137 33.162C168.524 32.9797 168.955 32.8885 169.429 32.8885C169.889 32.8885 170.304 32.9797 170.673 33.162C171.042 33.3397 171.356 33.5904 171.616 33.9139C171.876 34.233 172.074 34.6158 172.211 35.0624C172.352 35.5044 172.423 35.9875 172.423 36.5116V36.8739H167.467ZM169.388 33.8934C169.096 33.8934 168.836 33.9504 168.608 34.0643C168.381 34.1783 168.185 34.3309 168.021 34.5223C167.861 34.7137 167.733 34.9348 167.638 35.1854C167.547 35.4315 167.494 35.6867 167.48 35.951H171.179C171.17 35.6822 171.122 35.4247 171.035 35.1786C170.953 34.9279 170.835 34.7092 170.68 34.5223C170.529 34.3309 170.345 34.1783 170.126 34.0643C169.912 33.9504 169.666 33.8934 169.388 33.8934ZM177.598 34.0507H177.413C177.117 34.0507 176.834 34.0848 176.565 34.1532C176.297 34.2216 176.06 34.3446 175.854 34.5223C175.649 34.7001 175.485 34.9439 175.362 35.2538C175.239 35.5591 175.178 35.951 175.178 36.4296V40.0116H174.029V33.0253H175.178V34.1327C175.264 33.9276 175.381 33.7476 175.526 33.5927C175.672 33.4377 175.836 33.3101 176.019 33.2098C176.205 33.105 176.404 33.0275 176.613 32.9774C176.827 32.9273 177.044 32.9022 177.263 32.9022H177.598V34.0507ZM183.415 39.2118C183.21 39.4989 182.93 39.7268 182.574 39.8954C182.223 40.064 181.822 40.1483 181.371 40.1483C180.92 40.1483 180.512 40.0594 180.147 39.8817C179.783 39.6994 179.471 39.4488 179.211 39.1298C178.951 38.8062 178.751 38.4234 178.609 37.9813C178.473 37.5393 178.404 37.0539 178.404 36.5253C178.404 35.9966 178.473 35.5113 178.609 35.0692C178.751 34.6226 178.951 34.2375 179.211 33.9139C179.471 33.5904 179.783 33.3397 180.147 33.162C180.512 32.9797 180.92 32.8885 181.371 32.8885C181.822 32.8885 182.223 32.9729 182.574 33.1415C182.93 33.3101 183.21 33.538 183.415 33.8251V30.2089H184.563V40.0116H183.415V39.2118ZM179.594 36.5526C179.594 36.9172 179.637 37.2567 179.724 37.5712C179.81 37.8856 179.938 38.1591 180.106 38.3915C180.275 38.6193 180.482 38.7994 180.729 38.9315C180.975 39.0637 181.259 39.1298 181.583 39.1298C181.888 39.1298 182.155 39.0774 182.383 38.9725C182.615 38.8677 182.809 38.7242 182.964 38.5419C183.119 38.3596 183.235 38.1454 183.312 37.8993C183.39 37.6486 183.429 37.3775 183.429 37.0858V35.951C183.429 35.6594 183.39 35.3905 183.312 35.1444C183.235 34.8938 183.119 34.6773 182.964 34.495C182.809 34.3127 182.615 34.1691 182.383 34.0643C182.155 33.9595 181.888 33.9071 181.583 33.9071C181.259 33.9071 180.975 33.9732 180.729 34.1053C180.482 34.2375 180.275 34.4198 180.106 34.6522C179.938 34.8801 179.81 35.1512 179.724 35.4657C179.637 35.7802 179.594 36.1197 179.594 36.4843V36.5526ZM187.455 36.8739C187.478 37.202 187.544 37.5051 187.653 37.7831C187.763 38.0611 187.911 38.3026 188.098 38.5077C188.289 38.7082 188.512 38.8654 188.768 38.9794C189.027 39.0887 189.314 39.1434 189.629 39.1434C190.016 39.1434 190.356 39.0796 190.647 38.952C190.944 38.8199 191.215 38.6558 191.461 38.4598L192.049 39.287C191.734 39.5376 191.37 39.745 190.955 39.9091C190.545 40.0686 190.085 40.1483 189.574 40.1483C189.068 40.1483 188.61 40.0594 188.2 39.8817C187.79 39.6994 187.439 39.4488 187.147 39.1298C186.86 38.8062 186.639 38.4234 186.484 37.9813C186.329 37.5347 186.252 37.0494 186.252 36.5253C186.252 35.9921 186.327 35.5044 186.478 35.0624C186.632 34.6158 186.849 34.233 187.127 33.9139C187.405 33.5904 187.738 33.3397 188.125 33.162C188.512 32.9797 188.943 32.8885 189.417 32.8885C189.877 32.8885 190.292 32.9797 190.661 33.162C191.03 33.3397 191.345 33.5904 191.604 33.9139C191.864 34.233 192.062 34.6158 192.199 35.0624C192.34 35.5044 192.411 35.9875 192.411 36.5116V36.8739H187.455ZM189.376 33.8934C189.084 33.8934 188.825 33.9504 188.597 34.0643C188.369 34.1783 188.173 34.3309 188.009 34.5223C187.849 34.7137 187.722 34.9348 187.626 35.1854C187.535 35.4315 187.482 35.6867 187.469 35.951H191.167C191.158 35.6822 191.11 35.4247 191.023 35.1786C190.941 34.9279 190.823 34.7092 190.668 34.5223C190.518 34.3309 190.333 34.1783 190.114 34.0643C189.9 33.9504 189.654 33.8934 189.376 33.8934ZM194.797 36.8739C194.82 37.202 194.886 37.5051 194.995 37.7831C195.104 38.0611 195.253 38.3026 195.439 38.5077C195.631 38.7082 195.854 38.8654 196.109 38.9794C196.369 39.0887 196.656 39.1434 196.971 39.1434C197.358 39.1434 197.698 39.0796 197.989 38.952C198.285 38.8199 198.557 38.6558 198.803 38.4598L199.391 39.287C199.076 39.5376 198.712 39.745 198.297 39.9091C197.887 40.0686 197.426 40.1483 196.916 40.1483C196.41 40.1483 195.952 40.0594 195.542 39.8817C195.132 39.6994 194.781 39.4488 194.489 39.1298C194.202 38.8062 193.981 38.4234 193.826 37.9813C193.671 37.5347 193.594 37.0494 193.594 36.5253C193.594 35.9921 193.669 35.5044 193.819 35.0624C193.974 34.6158 194.191 34.233 194.469 33.9139C194.747 33.5904 195.079 33.3397 195.467 33.162C195.854 32.9797 196.285 32.8885 196.759 32.8885C197.219 32.8885 197.634 32.9797 198.003 33.162C198.372 33.3397 198.687 33.5904 198.946 33.9139C199.206 34.233 199.404 34.6158 199.541 35.0624C199.682 35.5044 199.753 35.9875 199.753 36.5116V36.8739H194.797ZM196.718 33.8934C196.426 33.8934 196.166 33.9504 195.938 34.0643C195.711 34.1783 195.515 34.3309 195.351 34.5223C195.191 34.7137 195.063 34.9348 194.968 35.1854C194.877 35.4315 194.824 35.6867 194.811 35.951H198.509C198.5 35.6822 198.452 35.4247 198.365 35.1786C198.283 34.9279 198.165 34.7092 198.01 34.5223C197.859 34.3309 197.675 34.1783 197.456 34.0643C197.242 33.9504 196.996 33.8934 196.718 33.8934ZM201.359 33.0253H202.508V33.8251C202.745 33.5015 203.036 33.2645 203.383 33.1141C203.734 32.9637 204.123 32.8885 204.552 32.8885C204.939 32.8885 205.279 32.9524 205.57 33.08C205.862 33.2076 206.106 33.3807 206.302 33.5995C206.498 33.8182 206.644 34.0712 206.739 34.3583C206.84 34.6454 206.89 34.9484 206.89 35.2675V40.0116H205.741V35.6298C205.741 35.3244 205.702 35.0647 205.625 34.8505C205.552 34.6317 205.45 34.4563 205.317 34.3241C205.19 34.1874 205.037 34.0894 204.859 34.0302C204.686 33.9663 204.499 33.9344 204.299 33.9344C204.08 33.9344 203.864 33.9755 203.649 34.0575C203.44 34.135 203.248 34.2535 203.075 34.413C202.907 34.5725 202.77 34.773 202.665 35.0145C202.56 35.2561 202.508 35.5409 202.508 35.869V40.0116H201.359V33.0253ZM211.456 35.1239C211.456 34.4221 211.554 33.7658 211.75 33.1552C211.946 32.5399 212.229 32.0067 212.598 31.5555C212.967 31.0998 213.413 30.7421 213.938 30.4823C214.466 30.218 215.061 30.0858 215.722 30.0858C216.182 30.0858 216.604 30.1473 216.986 30.2704C217.374 30.3889 217.72 30.5598 218.025 30.7831C218.331 31.0018 218.595 31.2684 218.818 31.5829C219.046 31.8928 219.233 32.2391 219.379 32.6219L218.23 33.0116C218.158 32.7883 218.05 32.565 217.909 32.3417C217.768 32.1184 217.592 31.9178 217.383 31.7401C217.173 31.5624 216.929 31.4188 216.651 31.3094C216.373 31.1955 216.063 31.1385 215.722 31.1385C215.211 31.1385 214.767 31.2479 214.389 31.4667C214.015 31.6809 213.705 31.968 213.459 32.328C213.213 32.688 213.028 33.105 212.905 33.579C212.787 34.0484 212.728 34.536 212.728 35.0419V35.2128C212.728 35.7186 212.787 36.2063 212.905 36.6757C213.028 37.1451 213.213 37.5598 213.459 37.9198C213.705 38.2753 214.015 38.5624 214.389 38.7811C214.767 38.9953 215.211 39.1024 215.722 39.1024C216.063 39.1024 216.373 39.0477 216.651 38.9384C216.929 38.8244 217.173 38.6786 217.383 38.5009C217.592 38.3231 217.768 38.1226 217.909 37.8993C218.05 37.676 218.158 37.4504 218.23 37.2225L219.379 37.619C219.233 38.0018 219.046 38.3482 218.818 38.6581C218.595 38.968 218.331 39.2346 218.025 39.4579C217.72 39.6766 217.374 39.8475 216.986 39.9706C216.604 40.0891 216.182 40.1483 215.722 40.1483C215.061 40.1483 214.466 40.0184 213.938 39.7587C213.413 39.4989 212.967 39.1434 212.598 38.6923C212.229 38.2411 211.946 37.7102 211.75 37.0995C211.554 36.4888 211.456 35.8303 211.456 35.1239ZM222.264 40.0116H221.115V33.0253H222.264V40.0116ZM220.903 31.0087C220.903 30.8993 220.924 30.7968 220.965 30.701C221.01 30.6053 221.067 30.521 221.136 30.4481C221.209 30.3752 221.293 30.3182 221.389 30.2772C221.489 30.2316 221.594 30.2089 221.703 30.2089C221.812 30.2089 221.915 30.2316 222.011 30.2772C222.106 30.3182 222.188 30.3752 222.257 30.4481C222.33 30.521 222.387 30.6053 222.428 30.701C222.473 30.7968 222.496 30.8993 222.496 31.0087C222.496 31.118 222.473 31.2229 222.428 31.3231C222.387 31.4188 222.33 31.5031 222.257 31.576C222.188 31.6444 222.106 31.7014 222.011 31.7469C221.915 31.788 221.812 31.8085 221.703 31.8085C221.594 31.8085 221.489 31.788 221.389 31.7469C221.293 31.7014 221.209 31.6444 221.136 31.576C221.067 31.5031 221.01 31.4188 220.965 31.3231C220.924 31.2229 220.903 31.118 220.903 31.0087ZM226.174 38.2753C226.174 38.3938 226.181 38.5054 226.194 38.6102C226.213 38.7105 226.251 38.7994 226.311 38.8768C226.374 38.9543 226.465 39.0158 226.584 39.0614C226.702 39.107 226.864 39.1298 227.069 39.1298C227.124 39.1298 227.188 39.1275 227.261 39.1229C227.338 39.1184 227.418 39.1138 227.5 39.1093C227.582 39.1001 227.662 39.091 227.739 39.0819C227.817 39.0682 227.883 39.0568 227.938 39.0477L228.061 40.0526C227.928 40.0708 227.792 40.0868 227.65 40.1005C227.532 40.1141 227.4 40.1255 227.254 40.1346C227.108 40.1438 226.962 40.1483 226.816 40.1483C226.538 40.1483 226.288 40.1187 226.064 40.0594C225.846 40.0048 225.659 39.9136 225.504 39.786C225.349 39.6584 225.23 39.4921 225.148 39.287C225.066 39.0774 225.025 38.8244 225.025 38.5282V34.037H223.706V33.0253H225.025V30.7421L226.174 30.3387V33.0253H228.115V34.037H226.174V38.2753ZM228.765 33.0253H230.063L231.786 38.7948L233.427 33.0253H234.712L232.169 41.0643C232.091 41.3104 231.991 41.5109 231.868 41.6659C231.745 41.8254 231.604 41.9507 231.444 42.0419C231.289 42.1376 231.116 42.2037 230.925 42.2401C230.733 42.2766 230.531 42.2948 230.316 42.2948C230.125 42.2948 229.927 42.2834 229.722 42.2606C229.517 42.2424 229.3 42.215 229.072 42.1786L229.243 41.1737C229.334 41.1919 229.432 41.2079 229.537 41.2216C229.624 41.2352 229.722 41.2466 229.831 41.2557C229.94 41.2649 230.052 41.2694 230.166 41.2694C230.417 41.2694 230.61 41.2147 230.747 41.1053C230.888 40.996 230.989 40.8182 231.048 40.5721L231.116 40.2509L228.765 33.0253Z" fill="#505A5F"/>
</svg>
